<?xml version="1.0" encoding="UTF-8" standalone="no"?>
<!DOCTYPE svg PUBLIC "-//W3C//DTD SVG 1.1//EN" "http://www.w3.org/Graphics/SVG/1.1/DTD/svg11.dtd">
<svg width="246.86" height="246.86" viewBox="0.00 0.00 1200.00 1200.00" xmlns="http://www.w3.org/2000/svg" xmlns:xlink="http://www.w3.org/1999/xlink">
<g stroke-linecap="round" transform="translate(400.00, 400.00)" id="Layer_1_2">
<path d="M-14.93,272.69 C-3.58,274.62 5.00,277.08 13.07,278.81 C20.56,280.34 39.27,283.61 44.48,284.21 C60.64,285.76 79.76,287.65 82.73,287.97 C87.49,294.62 97.10,307.09 99.92,310.45 C104.92,316.39 115.38,326.10 121.68,330.38 C131.16,336.78 156.96,350.48 161.59,352.22 C168.51,354.78 178.88,356.11 183.14,356.37 C186.66,356.60 191.22,354.74 192.55,353.76 C187.95,350.82 184.60,348.11 181.81,344.72 C179.55,341.92 168.24,326.61 163.76,320.70 C158.44,313.83 153.24,304.65 150.28,296.09 C150.06,295.46 149.84,294.84 149.63,294.21 C160.20,294.11 197.71,291.28 209.67,289.92 C218.49,288.76 234.84,286.06 242.11,284.59 C253.84,281.96 278.37,273.09 288.18,270.07 C294.45,272.71 309.36,280.10 312.89,281.51 C319.03,283.94 330.50,286.17 340.73,286.51 C341.57,286.53 342.42,286.56 343.26,286.59 C333.69,277.23 328.55,271.65 327.36,269.60 C325.76,266.78 325.30,264.29 325.93,262.19 C326.10,261.66 326.28,261.05 326.46,260.37 C334.20,259.22 348.42,254.40 352.24,253.31 C364.51,249.86 424.25,240.25 433.09,238.80 C437.34,242.14 441.16,245.48 443.39,248.63 C447.43,254.77 455.13,266.32 458.80,271.74 C462.11,276.61 481.21,296.82 490.64,308.04 C491.51,306.67 492.31,304.15 492.33,302.14 C492.35,300.35 487.20,280.67 487.11,274.05 C487.11,273.44 492.99,231.48 494.58,219.01 C494.58,219.01 484.52,208.28 484.52,208.28 C484.52,208.28 496.23,198.89 496.23,198.89 C497.80,193.07 501.70,178.58 504.25,169.72 C507.23,160.18 512.48,146.14 515.48,139.71 C521.68,126.52 533.18,109.44 545.12,93.58 C545.12,93.58 561.81,89.57 561.81,89.57 C561.29,88.31 558.41,80.98 558.03,75.59 C557.70,70.38 559.37,55.71 559.88,51.30 C558.48,53.52 553.97,60.72 552.80,62.46 C550.29,66.12 545.45,71.44 542.11,73.15 C541.56,73.43 540.93,73.75 540.23,74.13 C522.48,85.71 502.87,100.58 492.93,109.88 C484.13,118.16 470.65,134.49 453.78,156.72 C444.71,167.99 433.08,181.96 432.25,182.94 C426.79,185.01 422.70,186.13 418.55,186.38 C410.23,186.79 396.64,185.21 388.74,183.54 C385.26,182.80 302.32,162.83 273.46,156.02 C258.20,152.37 228.14,145.31 213.33,141.92 C199.61,138.56 172.17,131.00 158.36,127.02 C154.67,121.05 151.90,116.26 151.43,114.04 C151.41,113.94 150.40,87.77 150.40,84.08 C150.41,79.39 151.72,57.35 152.32,55.26 C153.72,51.12 159.12,26.26 159.37,25.09 C157.39,24.01 154.04,22.92 151.87,22.87 C150.07,22.84 143.70,26.36 139.73,29.84 C135.79,33.34 123.59,47.16 119.57,52.67 C113.91,60.51 97.34,91.62 90.31,104.97 C85.09,114.45 72.23,129.60 71.54,130.42 C57.75,136.10 31.03,144.03 17.43,148.10 C2.88,152.62 -22.87,160.81 -41.00,167.36 C-55.74,172.99 -93.03,188.73 -99.13,191.73 C-106.06,195.15 -119.34,203.36 -125.01,208.33 C-128.41,211.35 -133.74,217.28 -136.20,220.67 C-138.35,223.67 -141.42,229.35 -141.72,230.76 C-142.11,232.88 -141.66,236.00 -140.59,237.22 C-139.33,238.61 -131.66,242.71 -128.04,244.03 C-124.07,245.44 -117.16,247.55 -113.03,248.57 C-108.66,249.63 -91.70,252.38 -89.39,252.85 C-87.98,253.15 -84.27,254.06 -82.94,254.48 C-78.12,256.06 -72.05,260.25 -70.98,261.00 C-61.71,253.78 -53.96,247.96 -47.30,244.59 C-43.33,242.60 -22.72,235.47 -20.46,235.16 C-15.90,234.58 -3.19,235.97 -0.47,236.27 C-9.65,241.47 -15.57,245.68 -24.56,252.61 C-29.83,256.70 -33.65,260.18 -34.10,262.01 C-34.52,263.94 -33.54,266.07 -31.44,268.15 C-30.91,268.66 -30.32,269.26 -29.66,269.94 C-26.39,270.56 -19.02,271.94 -14.93,272.69 Z" fill="none" stroke="rgb(0, 0, 0)" stroke-width="8.00" stroke-opacity="1.00" stroke-linejoin="round"/>
</g>
</svg>
